<svg xmlns="http://www.w3.org/2000/svg" width="86.667" height="26.687" viewBox="0 0 86.667 26.687">
  <g id="Group_38" data-name="Group 38" transform="translate(-355 -63)">
    <path id="Path_1" data-name="Path 1" d="M12.03,15.759A19.954,19.954,0,0,0,20.918,3.906L18.8.439a.678.678,0,0,0-1.287,0L11.2,11.173,8.348,6.066a.68.68,0,0,0-1.287,0L0,18.634a19.984,19.984,0,0,0,12.03-2.875Z" transform="translate(355 63.025)" fill="#fff"/>
    <path id="Path_2" data-name="Path 2" d="M51.973,70.595,44.254,57.2A21.527,21.527,0,0,1,24.8,71.7H51.325C52.042,71.7,52.327,71.2,51.973,70.595Z" transform="translate(332.635 11.42)" fill="#fff"/>
    <path id="Path_3" data-name="Path 3" d="M308.091,60.5c-.326-.874-.638-1.375-1.4-1.512l-.786-.147V58.11h6.236v.756l-.786.118c-.7.089-.874.727-.579,1.512l3.241,8.485,2.977-8.435c.326-.845-.413-1.483-1.227-1.571l-.815-.118V58.1h5.509v.727l-.727.147a2.079,2.079,0,0,0-1.807,1.571l-4.254,12.021h-.992Z" transform="translate(79.14 10.608)" fill="#fff"/>
    <path id="Path_4" data-name="Path 4" d="M468.608,69.568a4.916,4.916,0,0,1-4.784,2.916c-3.819,0-6.824-2.248-6.824-7.168,0-4.783,3.094-7.316,6.5-7.316a5.465,5.465,0,0,1,5.775,5.863c0,.962-.353,1.542-1.316,1.542h-7.984c.029,4.174,1.66,6.236,4.2,6.236a3.466,3.466,0,0,0,3.29-2.131c.118-.265.206-.442.489-.442h.442C468.608,69.077,468.725,69.274,468.608,69.568ZM463.53,58.786c-2.249,0-3.526,2.072-3.555,5.8h6.678c0-3.771-.933-5.8-3.122-5.8Z" transform="translate(-57.121 10.699)" fill="#fff"/>
    <path id="Path_5" data-name="Path 5" d="M591.188,19.962v.727a31.17,31.17,0,0,1-3.761.845c-.413,0-.579-.236-.579-.668V4.653c0-.962-.609-1.227-1.748-1.109V2.816c2.249-.381,3.211-1.316,3.82-1.316.353,0,.55.206.55.7V19.314C589.469,20.309,590.059,20.139,591.188,19.962Z" transform="translate(-172.64 61.65)" fill="#fff"/>
    <path id="Path_6" data-name="Path 6" d="M655.458,35.871c-1.957,0-3.378-.962-3.378-3.673V22.25h-1.316a.247.247,0,0,1-.265-.265v-.353a.264.264,0,0,1,.265-.265c1.807,0,2.563-1.257,2.946-3.968h1.051v3.968h3.153a.264.264,0,0,1,.265.265v.353a.247.247,0,0,1-.265.265h-3.153v10.5c0,1.051.295,2.043,1.483,2.043a2.293,2.293,0,0,0,1.866-1.051v1.021a3.71,3.71,0,0,1-2.651,1.109Z" transform="translate(-231.617 47.312)" fill="#fff"/>
    <path id="Path_7" data-name="Path 7" d="M746.77,58.637l-.668.089c-.55.147-1.2.206-1.424.992l-6.884,18.809c-.118.177-.206.373-.727.373-.609,0-.816-.206-.668-.471.489-1.142,2.681-5.942,2.681-6.088,0-.489-3.467-8.485-5.185-12.718-.326-.7-.609-.874-1.021-.9L732,58.627V57.9c2.131.089,4.458.089,6.266,0v.727l-.962.089c-.413.029-.962.236-.7.9l3.732,9.389,3.35-9.379c.236-.668-.489-.845-.874-.9l-.756-.089V57.91a42.013,42.013,0,0,0,4.724,0v.727Z" transform="translate(-305.114 10.788)" fill="#fff"/>
  </g>
</svg>
